# xmcd
#
# Track frame offsets:
#	150
#	26092
#	44723
#	71925
#	91102
#	110575
#	129306
#	151604
#	176965
#	193913
#	217548
#	238793
#	251374
#	273938
#	296542
#
# Disc length: 4246 seconds
#
# Revision: 1
# Processed by: cddbd v1.5.2PL0 Copyright (c) Steve Scherf et al.
# Submitted via: audiograbber 1.83.01
#
DISCID=d710940f
DTITLE=Doug Deming and the Jewel Tones - Falling Through The Cracks
DYEAR=2009
DGENRE=Blues
TTITLE0=Tonight Is The Night
TTITLE1=Don't Worry Me (Part 1)
TTITLE2=Falling Through The Cracks
TTITLE3=Monna Didn't Raise No Fool
TTITLE4=You Changed
TTITLE5=It was The Wine
TTITLE6=Only Time Will Tell
TTITLE7=Put It Down
TTITLE8=East Side Hop
TTITLE9=Every Night When I Get Home
TTITLE10=Whisper
TTITLE11=I Can't Believe My Eyes
TTITLE12=Don't Worry Me (Part 2)
TTITLE13=No Sense
TTITLE14=Heiding Out!
EXTD=
EXTT0=
EXTT1=
EXTT2=
EXTT3=
EXTT4=
EXTT5=
EXTT6=
EXTT7=
EXTT8=
EXTT9=
EXTT10=
EXTT11=
EXTT12=
EXTT13=
EXTT14=
PLAYORDER=
